<svg xmlns="http://www.w3.org/2000/svg" xmlns:xlink="http://www.w3.org/1999/xlink" version="1.1" x="0px" y="0px" viewBox="0 0 24 30" style="enable-background:new 0 0 24 24;" xml:space="preserve"><g><path d="M7.02,14.186c-1.07,1.336-2.204,2.168-3.398,2.455c-0.328,0.079-0.638,0.111-0.926,0.111c-0.666,0-1.214-0.174-1.608-0.356   c1.431,3.539,4.531,6.224,8.321,7.08c0.434-0.324,0.702-0.763,0.802-1.349C10.651,19.55,7.798,15.29,7.02,14.186z"/><path d="M3.511,16.135c1.401-0.341,3.495-1.777,5.588-6.607C7.642,9.285,6.397,8.793,5.406,8.015   C3.805,6.758,3.276,5.158,3.1,4.318C1.315,6.382,0.228,9.064,0.228,12c0,1.272,0.209,2.495,0.584,3.644   C1.075,15.836,2.095,16.479,3.511,16.135z"/><path d="M9.624,9.614c-0.718,1.676-1.478,3.051-2.276,4.14c0.353,0.488,1.499,2.131,2.372,4.004   c0.628-0.066,2.662-0.242,4.82-0.096c0.253-0.553,1.117-2.361,2.352-4.178c-0.985-1.476-1.75-2.835-2.334-4.094   c-1.205,0.209-2.333,0.322-3.367,0.322C10.642,9.711,10.124,9.673,9.624,9.614z"/><path d="M5.733,7.614c1.912,1.496,4.811,1.924,8.597,1.288c-1.094-2.531-1.348-4.601-0.731-6.171   c0.437-1.116,1.21-1.704,1.775-2.005C14.304,0.405,13.173,0.228,12,0.228c-3.32,0-6.318,1.387-8.46,3.606   C3.604,4.326,3.962,6.228,5.733,7.614z"/><path d="M9.945,18.258c0.582,1.361,0.974,2.794,0.775,3.956c-0.095,0.554-0.322,1.015-0.668,1.383   c0.635,0.106,1.283,0.175,1.947,0.175c3.147,0,6.003-1.248,8.117-3.267C18.912,17.609,11.607,18.104,9.945,18.258z"/><path d="M23.571,9.88c-0.665-0.292-1.351-0.311-2.094-0.041c-3.014,1.1-5.726,6.475-6.387,7.868   c2.305,0.217,4.605,0.852,5.41,2.415c2.021-2.115,3.272-4.973,3.272-8.122C23.772,11.275,23.697,10.569,23.571,9.88z"/><path d="M14.076,2.93c-0.6,1.545-0.526,4.55,3.136,10.097c1.146-1.599,2.562-3.117,4.088-3.674c0.737-0.27,1.456-0.285,2.143-0.07   c-0.912-3.84-3.705-6.949-7.353-8.307C15.756,1.082,14.617,1.538,14.076,2.93z"/></g><text x="0" y="39" fill="#000000" font-size="5px" font-weight="bold" font-family="'Helvetica Neue', Helvetica, Arial-Unicode, Arial, Sans-serif">Created by Atif Arshad</text><text x="0" y="44" fill="#000000" font-size="5px" font-weight="bold" font-family="'Helvetica Neue', Helvetica, Arial-Unicode, Arial, Sans-serif">from the Noun Project</text></svg>